<?xml version="1.0" encoding="utf-8" standalone="no"?>
<!DOCTYPE svg PUBLIC "-//W3C//DTD SVG 1.1//EN"
  "http://www.w3.org/Graphics/SVG/1.1/DTD/svg11.dtd">
<svg xmlns:xlink="http://www.w3.org/1999/xlink" width="271.003125pt" height="222.954375pt" viewBox="0 0 271.003125 222.954375" xmlns="http://www.w3.org/2000/svg" version="1.1">
 <metadata>
  <rdf:RDF xmlns:dc="http://purl.org/dc/elements/1.1/" xmlns:cc="http://creativecommons.org/ns#" xmlns:rdf="http://www.w3.org/1999/02/22-rdf-syntax-ns#">
   <cc:Work>
    <dc:type rdf:resource="http://purl.org/dc/dcmitype/StillImage"/>
    <dc:date>2022-05-19T11:09:16.637302</dc:date>
    <dc:format>image/svg+xml</dc:format>
    <dc:creator>
     <cc:Agent>
      <dc:title>Matplotlib v3.5.1, https://matplotlib.org/</dc:title>
     </cc:Agent>
    </dc:creator>
   </cc:Work>
  </rdf:RDF>
 </metadata>
 <defs>
  <style type="text/css">*{stroke-linejoin: round; stroke-linecap: butt}</style>
 </defs>
 <g id="figure_1">
  <g id="patch_1">
   <path d="M 0 222.954375 
L 271.003125 222.954375 
L 271.003125 0 
L 0 0 
L 0 222.954375 
z
" style="fill: none"/>
  </g>
  <g id="axes_1">
   <g id="patch_2">
    <path d="M 40.603125 185.398125 
L 263.803125 185.398125 
L 263.803125 22.318125 
L 40.603125 22.318125 
z
" style="fill: #ffffff"/>
   </g>
   <g id="matplotlib.axis_1">
    <g id="xtick_1">
     <g id="line2d_1">
      <defs>
       <path id="m4f6197c5e8" d="M 0 0 
L 0 3.5 
" style="stroke: #000000; stroke-width: 0.8"/>
      </defs>
      <g>
       <use xlink:href="#m4f6197c5e8" x="50.74858" y="185.398125" style="stroke: #000000; stroke-width: 0.8"/>
      </g>
     </g>
     <g id="text_1">
      <!-- 0 -->
      <g transform="translate(47.56733 199.996562)scale(0.1 -0.1)">
       <defs>
        <path id="DejaVuSans-30" d="M 2034 4250 
Q 1547 4250 1301 3770 
Q 1056 3291 1056 2328 
Q 1056 1369 1301 889 
Q 1547 409 2034 409 
Q 2525 409 2770 889 
Q 3016 1369 3016 2328 
Q 3016 3291 2770 3770 
Q 2525 4250 2034 4250 
z
M 2034 4750 
Q 2819 4750 3233 4129 
Q 3647 3509 3647 2328 
Q 3647 1150 3233 529 
Q 2819 -91 2034 -91 
Q 1250 -91 836 529 
Q 422 1150 422 2328 
Q 422 3509 836 4129 
Q 1250 4750 2034 4750 
z
" transform="scale(0.015625)"/>
       </defs>
       <use xlink:href="#DejaVuSans-30"/>
      </g>
     </g>
    </g>
    <g id="xtick_2">
     <g id="line2d_2">
      <g>
       <use xlink:href="#m4f6197c5e8" x="101.539341" y="185.398125" style="stroke: #000000; stroke-width: 0.8"/>
      </g>
     </g>
     <g id="text_2">
      <!-- 200 -->
      <g transform="translate(91.995591 199.996562)scale(0.1 -0.1)">
       <defs>
        <path id="DejaVuSans-32" d="M 1228 531 
L 3431 531 
L 3431 0 
L 469 0 
L 469 531 
Q 828 903 1448 1529 
Q 2069 2156 2228 2338 
Q 2531 2678 2651 2914 
Q 2772 3150 2772 3378 
Q 2772 3750 2511 3984 
Q 2250 4219 1831 4219 
Q 1534 4219 1204 4116 
Q 875 4013 500 3803 
L 500 4441 
Q 881 4594 1212 4672 
Q 1544 4750 1819 4750 
Q 2544 4750 2975 4387 
Q 3406 4025 3406 3419 
Q 3406 3131 3298 2873 
Q 3191 2616 2906 2266 
Q 2828 2175 2409 1742 
Q 1991 1309 1228 531 
z
" transform="scale(0.015625)"/>
       </defs>
       <use xlink:href="#DejaVuSans-32"/>
       <use xlink:href="#DejaVuSans-30" x="63.623047"/>
       <use xlink:href="#DejaVuSans-30" x="127.246094"/>
      </g>
     </g>
    </g>
    <g id="xtick_3">
     <g id="line2d_3">
      <g>
       <use xlink:href="#m4f6197c5e8" x="152.330102" y="185.398125" style="stroke: #000000; stroke-width: 0.8"/>
      </g>
     </g>
     <g id="text_3">
      <!-- 400 -->
      <g transform="translate(142.786352 199.996562)scale(0.1 -0.1)">
       <defs>
        <path id="DejaVuSans-34" d="M 2419 4116 
L 825 1625 
L 2419 1625 
L 2419 4116 
z
M 2253 4666 
L 3047 4666 
L 3047 1625 
L 3713 1625 
L 3713 1100 
L 3047 1100 
L 3047 0 
L 2419 0 
L 2419 1100 
L 313 1100 
L 313 1709 
L 2253 4666 
z
" transform="scale(0.015625)"/>
       </defs>
       <use xlink:href="#DejaVuSans-34"/>
       <use xlink:href="#DejaVuSans-30" x="63.623047"/>
       <use xlink:href="#DejaVuSans-30" x="127.246094"/>
      </g>
     </g>
    </g>
    <g id="xtick_4">
     <g id="line2d_4">
      <g>
       <use xlink:href="#m4f6197c5e8" x="203.120863" y="185.398125" style="stroke: #000000; stroke-width: 0.8"/>
      </g>
     </g>
     <g id="text_4">
      <!-- 600 -->
      <g transform="translate(193.577113 199.996562)scale(0.1 -0.1)">
       <defs>
        <path id="DejaVuSans-36" d="M 2113 2584 
Q 1688 2584 1439 2293 
Q 1191 2003 1191 1497 
Q 1191 994 1439 701 
Q 1688 409 2113 409 
Q 2538 409 2786 701 
Q 3034 994 3034 1497 
Q 3034 2003 2786 2293 
Q 2538 2584 2113 2584 
z
M 3366 4563 
L 3366 3988 
Q 3128 4100 2886 4159 
Q 2644 4219 2406 4219 
Q 1781 4219 1451 3797 
Q 1122 3375 1075 2522 
Q 1259 2794 1537 2939 
Q 1816 3084 2150 3084 
Q 2853 3084 3261 2657 
Q 3669 2231 3669 1497 
Q 3669 778 3244 343 
Q 2819 -91 2113 -91 
Q 1303 -91 875 529 
Q 447 1150 447 2328 
Q 447 3434 972 4092 
Q 1497 4750 2381 4750 
Q 2619 4750 2861 4703 
Q 3103 4656 3366 4563 
z
" transform="scale(0.015625)"/>
       </defs>
       <use xlink:href="#DejaVuSans-36"/>
       <use xlink:href="#DejaVuSans-30" x="63.623047"/>
       <use xlink:href="#DejaVuSans-30" x="127.246094"/>
      </g>
     </g>
    </g>
    <g id="xtick_5">
     <g id="line2d_5">
      <g>
       <use xlink:href="#m4f6197c5e8" x="253.911624" y="185.398125" style="stroke: #000000; stroke-width: 0.8"/>
      </g>
     </g>
     <g id="text_5">
      <!-- 800 -->
      <g transform="translate(244.367874 199.996562)scale(0.1 -0.1)">
       <defs>
        <path id="DejaVuSans-38" d="M 2034 2216 
Q 1584 2216 1326 1975 
Q 1069 1734 1069 1313 
Q 1069 891 1326 650 
Q 1584 409 2034 409 
Q 2484 409 2743 651 
Q 3003 894 3003 1313 
Q 3003 1734 2745 1975 
Q 2488 2216 2034 2216 
z
M 1403 2484 
Q 997 2584 770 2862 
Q 544 3141 544 3541 
Q 544 4100 942 4425 
Q 1341 4750 2034 4750 
Q 2731 4750 3128 4425 
Q 3525 4100 3525 3541 
Q 3525 3141 3298 2862 
Q 3072 2584 2669 2484 
Q 3125 2378 3379 2068 
Q 3634 1759 3634 1313 
Q 3634 634 3220 271 
Q 2806 -91 2034 -91 
Q 1263 -91 848 271 
Q 434 634 434 1313 
Q 434 1759 690 2068 
Q 947 2378 1403 2484 
z
M 1172 3481 
Q 1172 3119 1398 2916 
Q 1625 2713 2034 2713 
Q 2441 2713 2670 2916 
Q 2900 3119 2900 3481 
Q 2900 3844 2670 4047 
Q 2441 4250 2034 4250 
Q 1625 4250 1398 4047 
Q 1172 3844 1172 3481 
z
" transform="scale(0.015625)"/>
       </defs>
       <use xlink:href="#DejaVuSans-38"/>
       <use xlink:href="#DejaVuSans-30" x="63.623047"/>
       <use xlink:href="#DejaVuSans-30" x="127.246094"/>
      </g>
     </g>
    </g>
    <g id="text_6">
     <!-- Epochs -->
     <g transform="translate(134.2875 213.674688)scale(0.1 -0.1)">
      <defs>
       <path id="DejaVuSans-45" d="M 628 4666 
L 3578 4666 
L 3578 4134 
L 1259 4134 
L 1259 2753 
L 3481 2753 
L 3481 2222 
L 1259 2222 
L 1259 531 
L 3634 531 
L 3634 0 
L 628 0 
L 628 4666 
z
" transform="scale(0.015625)"/>
       <path id="DejaVuSans-70" d="M 1159 525 
L 1159 -1331 
L 581 -1331 
L 581 3500 
L 1159 3500 
L 1159 2969 
Q 1341 3281 1617 3432 
Q 1894 3584 2278 3584 
Q 2916 3584 3314 3078 
Q 3713 2572 3713 1747 
Q 3713 922 3314 415 
Q 2916 -91 2278 -91 
Q 1894 -91 1617 61 
Q 1341 213 1159 525 
z
M 3116 1747 
Q 3116 2381 2855 2742 
Q 2594 3103 2138 3103 
Q 1681 3103 1420 2742 
Q 1159 2381 1159 1747 
Q 1159 1113 1420 752 
Q 1681 391 2138 391 
Q 2594 391 2855 752 
Q 3116 1113 3116 1747 
z
" transform="scale(0.015625)"/>
       <path id="DejaVuSans-6f" d="M 1959 3097 
Q 1497 3097 1228 2736 
Q 959 2375 959 1747 
Q 959 1119 1226 758 
Q 1494 397 1959 397 
Q 2419 397 2687 759 
Q 2956 1122 2956 1747 
Q 2956 2369 2687 2733 
Q 2419 3097 1959 3097 
z
M 1959 3584 
Q 2709 3584 3137 3096 
Q 3566 2609 3566 1747 
Q 3566 888 3137 398 
Q 2709 -91 1959 -91 
Q 1206 -91 779 398 
Q 353 888 353 1747 
Q 353 2609 779 3096 
Q 1206 3584 1959 3584 
z
" transform="scale(0.015625)"/>
       <path id="DejaVuSans-63" d="M 3122 3366 
L 3122 2828 
Q 2878 2963 2633 3030 
Q 2388 3097 2138 3097 
Q 1578 3097 1268 2742 
Q 959 2388 959 1747 
Q 959 1106 1268 751 
Q 1578 397 2138 397 
Q 2388 397 2633 464 
Q 2878 531 3122 666 
L 3122 134 
Q 2881 22 2623 -34 
Q 2366 -91 2075 -91 
Q 1284 -91 818 406 
Q 353 903 353 1747 
Q 353 2603 823 3093 
Q 1294 3584 2113 3584 
Q 2378 3584 2631 3529 
Q 2884 3475 3122 3366 
z
" transform="scale(0.015625)"/>
       <path id="DejaVuSans-68" d="M 3513 2113 
L 3513 0 
L 2938 0 
L 2938 2094 
Q 2938 2591 2744 2837 
Q 2550 3084 2163 3084 
Q 1697 3084 1428 2787 
Q 1159 2491 1159 1978 
L 1159 0 
L 581 0 
L 581 4863 
L 1159 4863 
L 1159 2956 
Q 1366 3272 1645 3428 
Q 1925 3584 2291 3584 
Q 2894 3584 3203 3211 
Q 3513 2838 3513 2113 
z
" transform="scale(0.015625)"/>
       <path id="DejaVuSans-73" d="M 2834 3397 
L 2834 2853 
Q 2591 2978 2328 3040 
Q 2066 3103 1784 3103 
Q 1356 3103 1142 2972 
Q 928 2841 928 2578 
Q 928 2378 1081 2264 
Q 1234 2150 1697 2047 
L 1894 2003 
Q 2506 1872 2764 1633 
Q 3022 1394 3022 966 
Q 3022 478 2636 193 
Q 2250 -91 1575 -91 
Q 1294 -91 989 -36 
Q 684 19 347 128 
L 347 722 
Q 666 556 975 473 
Q 1284 391 1588 391 
Q 1994 391 2212 530 
Q 2431 669 2431 922 
Q 2431 1156 2273 1281 
Q 2116 1406 1581 1522 
L 1381 1569 
Q 847 1681 609 1914 
Q 372 2147 372 2553 
Q 372 3047 722 3315 
Q 1072 3584 1716 3584 
Q 2034 3584 2315 3537 
Q 2597 3491 2834 3397 
z
" transform="scale(0.015625)"/>
      </defs>
      <use xlink:href="#DejaVuSans-45"/>
      <use xlink:href="#DejaVuSans-70" x="63.183594"/>
      <use xlink:href="#DejaVuSans-6f" x="126.660156"/>
      <use xlink:href="#DejaVuSans-63" x="187.841797"/>
      <use xlink:href="#DejaVuSans-68" x="242.822266"/>
      <use xlink:href="#DejaVuSans-73" x="306.201172"/>
     </g>
    </g>
   </g>
   <g id="matplotlib.axis_2">
    <g id="ytick_1">
     <g id="line2d_6">
      <defs>
       <path id="m5e14d59fe1" d="M 0 0 
L -3.5 0 
" style="stroke: #000000; stroke-width: 0.8"/>
      </defs>
      <g>
       <use xlink:href="#m5e14d59fe1" x="40.603125" y="174.391418" style="stroke: #000000; stroke-width: 0.8"/>
      </g>
     </g>
     <g id="text_7">
      <!-- 2 -->
      <g transform="translate(27.240625 178.190636)scale(0.1 -0.1)">
       <use xlink:href="#DejaVuSans-32"/>
      </g>
     </g>
    </g>
    <g id="ytick_2">
     <g id="line2d_7">
      <g>
       <use xlink:href="#m5e14d59fe1" x="40.603125" y="141.682926" style="stroke: #000000; stroke-width: 0.8"/>
      </g>
     </g>
     <g id="text_8">
      <!-- 4 -->
      <g transform="translate(27.240625 145.482145)scale(0.1 -0.1)">
       <use xlink:href="#DejaVuSans-34"/>
      </g>
     </g>
    </g>
    <g id="ytick_3">
     <g id="line2d_8">
      <g>
       <use xlink:href="#m5e14d59fe1" x="40.603125" y="108.974435" style="stroke: #000000; stroke-width: 0.8"/>
      </g>
     </g>
     <g id="text_9">
      <!-- 6 -->
      <g transform="translate(27.240625 112.773654)scale(0.1 -0.1)">
       <use xlink:href="#DejaVuSans-36"/>
      </g>
     </g>
    </g>
    <g id="ytick_4">
     <g id="line2d_9">
      <g>
       <use xlink:href="#m5e14d59fe1" x="40.603125" y="76.265943" style="stroke: #000000; stroke-width: 0.8"/>
      </g>
     </g>
     <g id="text_10">
      <!-- 8 -->
      <g transform="translate(27.240625 80.065162)scale(0.1 -0.1)">
       <use xlink:href="#DejaVuSans-38"/>
      </g>
     </g>
    </g>
    <g id="ytick_5">
     <g id="line2d_10">
      <g>
       <use xlink:href="#m5e14d59fe1" x="40.603125" y="43.557452" style="stroke: #000000; stroke-width: 0.8"/>
      </g>
     </g>
     <g id="text_11">
      <!-- 10 -->
      <g transform="translate(20.878125 47.356671)scale(0.1 -0.1)">
       <defs>
        <path id="DejaVuSans-31" d="M 794 531 
L 1825 531 
L 1825 4091 
L 703 3866 
L 703 4441 
L 1819 4666 
L 2450 4666 
L 2450 531 
L 3481 531 
L 3481 0 
L 794 0 
L 794 531 
z
" transform="scale(0.015625)"/>
       </defs>
       <use xlink:href="#DejaVuSans-31"/>
       <use xlink:href="#DejaVuSans-30" x="63.623047"/>
      </g>
     </g>
    </g>
    <g id="text_12">
     <!-- loss -->
     <g transform="translate(14.798438 113.515937)rotate(-90)scale(0.1 -0.1)">
      <defs>
       <path id="DejaVuSans-6c" d="M 603 4863 
L 1178 4863 
L 1178 0 
L 603 0 
L 603 4863 
z
" transform="scale(0.015625)"/>
      </defs>
      <use xlink:href="#DejaVuSans-6c"/>
      <use xlink:href="#DejaVuSans-6f" x="27.783203"/>
      <use xlink:href="#DejaVuSans-73" x="88.964844"/>
      <use xlink:href="#DejaVuSans-73" x="141.064453"/>
     </g>
    </g>
   </g>
   <g id="line2d_11">
    <path d="M 50.74858 32.812641 
L 51.002533 63.824672 
L 51.256487 41.913708 
L 51.510441 41.037349 
L 51.764395 72.990652 
L 52.018349 23.417266 
L 52.272302 31.212942 
L 52.526256 61.032424 
L 52.78021 40.954516 
L 53.034164 65.025846 
L 53.542071 36.349534 
L 54.303933 53.965874 
L 54.557887 56.120408 
L 54.81184 61.282064 
L 55.065794 22.318125 
L 55.319748 80.373065 
L 55.573702 44.17082 
L 55.827656 68.884279 
L 56.081609 34.908126 
L 56.335563 64.557932 
L 56.589517 46.914968 
L 56.843471 56.414466 
L 57.097425 42.896046 
L 57.351378 63.09188 
L 57.605332 60.940966 
L 57.859286 70.729142 
L 58.11324 62.400108 
L 58.367194 45.145687 
L 58.621148 50.792975 
L 58.875101 71.472695 
L 59.129055 68.352715 
L 59.383009 23.19556 
L 59.636963 74.875489 
L 59.890917 58.528885 
L 60.14487 55.360665 
L 60.398824 89.05792 
L 60.652778 37.995961 
L 60.906732 77.082434 
L 61.414639 50.274497 
L 61.668593 60.754726 
L 61.922547 62.22477 
L 62.176501 43.124037 
L 62.430455 81.88476 
L 62.938362 58.496491 
L 63.192316 68.39453 
L 63.44627 70.355634 
L 63.700224 65.299302 
L 63.954177 54.185615 
L 64.208131 78.939033 
L 64.462085 74.731828 
L 64.716039 60.423766 
L 64.969993 81.385738 
L 65.223946 79.234527 
L 65.731854 46.810876 
L 65.985808 64.318212 
L 66.239762 64.866807 
L 66.493716 71.359448 
L 66.747669 81.914549 
L 67.255577 65.251249 
L 67.509531 64.738042 
L 67.763485 87.193172 
L 68.271392 53.313078 
L 68.525346 70.469255 
L 68.7793 100.514436 
L 69.033254 99.032819 
L 69.287207 77.948164 
L 69.541161 44.866289 
L 69.795115 77.773443 
L 70.049069 44.692714 
L 70.556976 93.955946 
L 70.81093 100.89529 
L 71.064884 101.76403 
L 71.318838 86.233925 
L 71.572792 61.147013 
L 71.826745 60.199471 
L 72.080699 86.531236 
L 72.334653 58.091805 
L 72.588607 69.089235 
L 72.842561 105.48076 
L 73.096514 41.090471 
L 73.350468 80.18284 
L 73.858376 106.965309 
L 74.11233 74.413548 
L 74.366283 74.963251 
L 74.620237 90.135015 
L 74.874191 89.047572 
L 75.128145 89.035305 
L 75.382099 72.349537 
L 75.636053 101.054773 
L 75.890006 69.668072 
L 76.14396 99.048026 
L 76.397914 82.019897 
L 76.651868 85.362729 
L 76.905822 71.139614 
L 77.159775 102.95838 
L 77.413729 64.963538 
L 77.921637 95.194256 
L 78.175591 71.515991 
L 78.429544 90.133175 
L 78.683498 94.869144 
L 79.191406 92.21006 
L 79.699313 84.726363 
L 79.953267 89.294638 
L 80.207221 83.22752 
L 80.461175 94.458859 
L 80.715129 118.336464 
L 80.969082 61.163545 
L 81.223036 102.172669 
L 81.47699 88.092559 
L 81.730944 81.868836 
L 81.984898 93.04919 
L 82.238851 97.194024 
L 82.492805 77.118424 
L 82.746759 96.12532 
L 83.000713 100.34083 
L 83.254667 89.352938 
L 83.508621 110.678046 
L 83.762574 82.42059 
L 84.270482 103.730452 
L 84.524436 95.178527 
L 84.77839 78.172264 
L 85.032343 103.639914 
L 85.286297 108.226904 
L 85.540251 91.208757 
L 85.794205 91.783617 
L 86.048159 93.258621 
L 86.302112 92.693906 
L 86.556066 99.688844 
L 86.81002 88.397169 
L 87.063974 109.927708 
L 87.825835 90.805272 
L 88.079789 107.450005 
L 88.333743 111.341355 
L 88.587697 93.395669 
L 88.84165 93.896562 
L 89.095604 100.322683 
L 89.349558 100.631403 
L 89.603512 94.961406 
L 89.857466 98.970729 
L 90.111419 109.775618 
L 90.365373 105.93052 
L 90.619327 91.788928 
L 90.873281 110.98654 
L 91.127235 99.056323 
L 91.381188 103.746672 
L 91.635142 102.624784 
L 91.889096 98.902759 
L 92.14305 107.675618 
L 92.397004 122.5578 
L 92.650958 123.019522 
L 93.158865 74.222676 
L 93.666773 116.612055 
L 93.920727 119.955137 
L 94.17468 85.953903 
L 94.428634 92.856657 
L 94.682588 105.489127 
L 94.936542 104.822496 
L 95.190496 124.179529 
L 95.698403 91.099308 
L 95.952357 121.739 
L 96.206311 108.45488 
L 96.460265 118.431814 
L 96.714218 107.845707 
L 96.968172 89.770842 
L 97.222126 119.066129 
L 97.47608 92.108784 
L 97.730034 118.432719 
L 97.983987 118.473387 
L 98.237941 109.229213 
L 98.491895 128.868022 
L 98.745849 102.276082 
L 98.999803 99.934366 
L 99.253756 111.378693 
L 99.50771 100.611751 
L 99.761664 106.360924 
L 100.015618 120.945405 
L 100.269572 119.230307 
L 100.523526 111.428041 
L 100.777479 116.601566 
L 101.031433 104.446665 
L 101.285387 118.504526 
L 101.539341 96.130264 
L 101.793295 130.779833 
L 102.301202 108.00576 
L 102.555156 116.384734 
L 102.80911 104.4951 
L 103.063064 124.414828 
L 103.317017 112.818363 
L 103.570971 118.730973 
L 103.824925 131.012332 
L 104.078879 97.937803 
L 104.332833 114.328374 
L 104.586786 121.40489 
L 104.84074 107.37118 
L 105.094694 112.609524 
L 105.348648 125.376406 
L 105.602602 116.64356 
L 105.856555 122.041606 
L 106.110509 114.17626 
L 106.364463 116.748525 
L 106.872371 108.50918 
L 107.126324 119.239524 
L 107.380278 134.684893 
L 107.634232 134.382825 
L 107.888186 118.391364 
L 108.14214 119.487277 
L 108.396093 103.262561 
L 108.904001 131.175605 
L 109.157955 116.066095 
L 109.411909 114.096218 
L 109.665863 117.032477 
L 109.919816 124.851627 
L 110.17377 114.82182 
L 110.427724 128.176663 
L 110.681678 112.789119 
L 110.935632 129.055283 
L 111.189585 128.828742 
L 111.443539 116.549879 
L 111.697493 117.896741 
L 111.951447 126.577986 
L 112.205401 128.147334 
L 112.459354 118.155793 
L 112.713308 123.782829 
L 112.967262 120.609423 
L 113.221216 139.872244 
L 113.47517 109.005012 
L 113.729123 128.989185 
L 113.983077 121.101637 
L 114.237031 118.209687 
L 114.490985 130.295145 
L 114.744939 128.235088 
L 114.998892 105.985334 
L 115.5068 143.138002 
L 115.760754 138.210626 
L 116.014708 118.536078 
L 116.268661 142.213219 
L 116.522615 103.592929 
L 116.776569 133.395114 
L 117.030523 122.909948 
L 117.284477 121.327998 
L 117.53843 130.66746 
L 117.792384 134.179983 
L 118.046338 124.482922 
L 118.300292 127.073101 
L 118.554246 125.190401 
L 118.8082 127.007595 
L 119.062153 136.397878 
L 119.316107 122.78856 
L 119.570061 128.114783 
L 119.824015 144.312193 
L 120.077969 127.717935 
L 120.331922 121.030976 
L 120.585876 123.91586 
L 120.83983 124.671314 
L 121.093784 136.095342 
L 121.347738 135.575499 
L 121.601691 123.642732 
L 121.855645 118.774948 
L 122.363553 136.550631 
L 122.617507 140.369722 
L 122.87146 136.939969 
L 123.125414 126.329859 
L 123.633322 133.740431 
L 123.887276 133.984713 
L 124.141229 127.933426 
L 124.395183 126.557289 
L 124.649137 142.079669 
L 124.903091 137.516046 
L 125.157045 136.314849 
L 125.410998 133.620875 
L 125.664952 124.304325 
L 125.918906 140.056105 
L 126.17286 131.595841 
L 126.426814 136.817466 
L 126.680768 126.324954 
L 126.934721 132.017878 
L 127.188675 127.909742 
L 127.442629 128.376526 
L 127.696583 151.657486 
L 127.950537 127.915716 
L 128.20449 145.562918 
L 128.712398 129.123823 
L 128.966352 135.025071 
L 129.220306 136.728877 
L 129.474259 134.269617 
L 129.728213 138.178443 
L 129.982167 124.371726 
L 130.236121 142.952156 
L 130.490075 139.660738 
L 130.744028 140.090768 
L 130.997982 136.021937 
L 131.251936 127.61382 
L 131.759844 146.950834 
L 132.013797 127.765715 
L 132.267751 141.76971 
L 132.521705 141.65833 
L 132.775659 141.267994 
L 133.029613 142.68616 
L 133.283566 145.757498 
L 133.53752 129.786757 
L 133.791474 136.36691 
L 134.045428 137.018795 
L 134.299382 142.975886 
L 134.553335 138.141658 
L 134.807289 139.30331 
L 135.061243 138.082835 
L 135.315197 135.514188 
L 135.569151 143.948905 
L 135.823105 142.737909 
L 136.077058 134.738202 
L 136.331012 143.780735 
L 136.584966 140.985211 
L 136.83892 143.336387 
L 137.092874 149.433189 
L 137.346827 130.586872 
L 137.600781 132.070555 
L 137.854735 154.23027 
L 138.108689 156.206507 
L 138.362643 128.059946 
L 138.616596 143.397919 
L 138.87055 139.721206 
L 139.124504 150.465752 
L 139.378458 134.055959 
L 139.632412 153.803671 
L 139.886365 130.617418 
L 140.140319 155.660902 
L 140.394273 138.482912 
L 140.648227 142.492902 
L 140.902181 135.118003 
L 141.156134 143.168485 
L 141.410088 145.395016 
L 141.664042 141.572221 
L 141.917996 144.884605 
L 142.17195 144.772387 
L 142.425903 149.865886 
L 142.679857 141.885117 
L 142.933811 140.393117 
L 143.441719 156.019694 
L 143.695673 126.253669 
L 143.949626 150.368647 
L 144.20358 143.87017 
L 144.457534 157.425882 
L 144.711488 134.150123 
L 144.965442 146.586949 
L 145.219395 146.391707 
L 145.473349 150.531534 
L 145.727303 143.737661 
L 145.981257 143.297391 
L 146.489164 147.819352 
L 146.743118 153.717075 
L 146.997072 138.670462 
L 147.251026 142.769399 
L 147.50498 141.557522 
L 148.012887 157.135519 
L 148.266841 135.389813 
L 148.520795 158.079568 
L 148.774749 157.321037 
L 149.028702 139.292237 
L 149.53661 143.772687 
L 149.790564 158.098927 
L 150.044518 149.973674 
L 150.298471 160.384873 
L 150.552425 132.764909 
L 150.806379 157.680415 
L 151.060333 143.893471 
L 151.314287 144.801089 
L 151.56824 153.899177 
L 152.076148 148.029181 
L 152.330102 155.830425 
L 152.584056 140.398942 
L 152.83801 154.029791 
L 153.091963 149.067514 
L 153.345917 138.894203 
L 153.853825 158.201362 
L 154.107779 153.392583 
L 154.361732 157.716794 
L 154.615686 148.901364 
L 154.86964 154.644286 
L 155.123594 141.326231 
L 155.377548 153.048678 
L 155.631501 157.107633 
L 156.139409 144.831822 
L 156.393363 153.913027 
L 156.647317 153.905903 
L 156.90127 148.051453 
L 157.155224 151.591731 
L 157.409178 146.049864 
L 157.663132 154.565254 
L 157.917086 152.684192 
L 158.171039 156.53427 
L 158.424993 151.044835 
L 158.678947 151.892161 
L 158.932901 150.154572 
L 159.186855 158.845377 
L 159.440808 152.937474 
L 159.694762 157.405501 
L 159.948716 145.674305 
L 160.20267 157.66738 
L 160.456624 151.552427 
L 160.710577 155.470966 
L 160.964531 147.824896 
L 161.218485 160.985285 
L 161.472439 152.242449 
L 161.726393 151.012979 
L 161.980347 160.284529 
L 162.2343 153.391862 
L 162.488254 150.502244 
L 162.742208 158.433451 
L 162.996162 153.641014 
L 163.250116 156.43217 
L 163.504069 148.321906 
L 163.758023 157.616597 
L 164.011977 159.461152 
L 164.265931 155.272549 
L 164.519885 146.689166 
L 164.773838 156.57491 
L 165.027792 154.41557 
L 165.281746 165.718845 
L 165.5357 162.36343 
L 165.789654 153.835504 
L 166.043607 161.454915 
L 166.297561 145.576588 
L 166.551515 163.061445 
L 166.805469 157.325436 
L 167.059423 158.654911 
L 167.313376 145.931068 
L 167.56733 159.627603 
L 167.821284 154.009839 
L 168.075238 157.811076 
L 168.329192 156.187233 
L 168.583145 151.942889 
L 168.837099 156.973677 
L 169.091053 158.599633 
L 169.345007 162.359188 
L 169.598961 148.674359 
L 169.852915 164.005006 
L 170.106868 157.615135 
L 170.614776 163.579413 
L 170.86873 157.262878 
L 171.122684 157.356543 
L 171.376637 154.160034 
L 171.630591 165.953246 
L 171.884545 146.765811 
L 172.138499 162.914611 
L 172.392453 158.748635 
L 172.646406 163.933172 
L 172.90036 157.463477 
L 173.154314 157.175037 
L 173.408268 157.253251 
L 173.662222 154.481481 
L 173.916175 159.444705 
L 174.170129 161.793962 
L 174.424083 162.120743 
L 174.678037 159.191217 
L 174.931991 163.958274 
L 175.185944 164.623045 
L 175.439898 150.519467 
L 175.947806 167.396371 
L 176.20176 154.410645 
L 176.455713 160.570532 
L 176.709667 146.878337 
L 176.963621 164.28927 
L 177.217575 163.814938 
L 177.471529 167.959191 
L 177.725482 162.966193 
L 177.979436 165.073117 
L 178.23339 158.705316 
L 178.487344 156.614963 
L 178.741298 163.452636 
L 178.995252 155.941227 
L 179.249205 159.369143 
L 179.503159 167.043029 
L 179.757113 163.04554 
L 180.011067 168.377192 
L 180.265021 163.521865 
L 180.518974 150.777255 
L 180.772928 163.152132 
L 181.026882 158.961034 
L 181.280836 165.412476 
L 181.53479 160.545534 
L 181.788743 160.470561 
L 182.042697 156.990401 
L 182.550605 169.291396 
L 182.804559 162.53571 
L 183.058512 159.674116 
L 183.312466 165.483784 
L 183.56642 163.437983 
L 183.820374 160.068929 
L 184.074328 164.038913 
L 184.328281 161.869875 
L 184.582235 166.841353 
L 185.090143 161.847977 
L 185.344097 164.285901 
L 185.59805 164.071245 
L 185.852004 169.316097 
L 186.359912 164.320717 
L 186.613866 153.360977 
L 187.375727 169.60913 
L 187.629681 164.934323 
L 187.883635 168.192177 
L 188.137589 166.910801 
L 188.391542 156.915822 
L 188.645496 166.038423 
L 188.89945 164.222555 
L 189.153404 170.9936 
L 189.407358 161.646153 
L 189.661311 162.110807 
L 189.915265 163.590978 
L 190.169219 160.588951 
L 190.423173 165.102794 
L 190.677127 171.882521 
L 190.93108 174.189083 
L 191.185034 155.280441 
L 191.438988 167.88488 
L 191.692942 164.356472 
L 191.946896 164.301712 
L 192.200849 168.662294 
L 192.454803 160.593307 
L 192.708757 169.909993 
L 192.962711 168.303704 
L 193.216665 164.280984 
L 193.470618 164.029578 
L 193.724572 167.888 
L 193.978526 156.9742 
L 194.23248 169.878952 
L 194.486434 167.897966 
L 194.740387 171.270054 
L 194.994341 163.142146 
L 195.248295 173.042996 
L 195.502249 162.372683 
L 195.756203 168.380919 
L 196.010157 165.460974 
L 196.26411 167.398348 
L 196.518064 166.642188 
L 196.772018 168.641656 
L 197.025972 168.421537 
L 197.279926 161.407049 
L 197.533879 175.190517 
L 197.787833 163.834457 
L 198.041787 157.571476 
L 198.549695 173.516085 
L 198.803648 173.144078 
L 199.057602 168.647516 
L 199.311556 171.257381 
L 199.819464 163.477009 
L 200.073417 172.188426 
L 200.581325 160.706998 
L 200.835279 173.101554 
L 201.089233 172.427464 
L 201.59714 161.237806 
L 201.851094 173.06866 
L 202.105048 162.219259 
L 202.359002 170.882805 
L 202.612955 171.320092 
L 202.866909 170.652041 
L 203.120863 170.560103 
L 203.374817 171.459116 
L 203.628771 170.839883 
L 203.882724 162.527311 
L 204.136678 172.399756 
L 204.390632 171.518095 
L 204.644586 166.376519 
L 204.89854 166.538202 
L 205.152494 158.969195 
L 205.660401 178.296146 
L 206.168309 168.784092 
L 206.422263 165.715078 
L 206.676216 174.565267 
L 206.93017 170.197103 
L 207.184124 176.314842 
L 207.438078 170.16949 
L 207.692032 171.754056 
L 207.945985 161.201325 
L 208.453893 171.064646 
L 208.707847 171.433884 
L 208.961801 172.496599 
L 209.215754 172.545557 
L 209.469708 166.988745 
L 209.723662 170.75834 
L 209.977616 172.185579 
L 210.485523 168.884963 
L 210.739477 170.115151 
L 210.993431 173.938383 
L 211.247385 170.33196 
L 211.501339 171.407004 
L 211.755292 168.691819 
L 212.009246 174.185289 
L 212.2632 172.339311 
L 212.517154 175.767666 
L 212.771108 171.783202 
L 213.025062 164.803331 
L 213.279015 164.042305 
L 213.532969 177.388467 
L 213.786923 168.332363 
L 214.040877 177.02087 
L 214.294831 168.135113 
L 214.548784 172.23279 
L 214.802738 167.702556 
L 215.056692 179.921273 
L 215.310646 171.923685 
L 215.5646 171.719587 
L 215.818553 169.891441 
L 216.072507 174.90859 
L 216.326461 168.775116 
L 216.580415 173.370771 
L 216.834369 180.586147 
L 217.088322 165.760078 
L 217.342276 171.873382 
L 217.59623 171.084559 
L 217.850184 176.626393 
L 218.104138 170.23126 
L 218.358091 174.095554 
L 218.612045 175.967975 
L 218.865999 164.28507 
L 219.119953 176.984953 
L 219.62786 171.691896 
L 219.881814 172.558616 
L 220.135768 173.015854 
L 220.389722 172.902509 
L 220.643676 171.944721 
L 220.897629 168.597268 
L 221.151583 179.902701 
L 221.405537 171.787132 
L 221.659491 176.964096 
L 221.913445 165.654423 
L 222.167399 179.778708 
L 222.675306 177.041358 
L 222.92926 164.452726 
L 223.183214 174.925514 
L 223.437168 172.166587 
L 223.691121 172.967005 
L 223.945075 168.097225 
L 224.199029 182.916004 
L 224.706937 170.04421 
L 224.96089 179.28664 
L 225.214844 168.875785 
L 225.468798 174.460988 
L 225.722752 171.07818 
L 225.976706 173.61407 
L 226.230659 178.186696 
L 226.484613 177.566405 
L 226.992521 173.929777 
L 227.246475 170.360061 
L 227.500428 173.264975 
L 227.754382 178.610511 
L 228.008336 176.513481 
L 228.26229 169.755282 
L 228.516244 177.384544 
L 228.770197 171.697908 
L 229.024151 178.907802 
L 229.278105 171.059289 
L 229.532059 172.615816 
L 229.786013 177.670126 
L 230.039967 177.237804 
L 230.29392 172.428462 
L 230.547874 173.017523 
L 230.801828 173.997642 
L 231.055782 180.540165 
L 231.309736 173.235782 
L 231.563689 176.473405 
L 231.817643 177.603946 
L 232.071597 168.178471 
L 232.325551 179.915808 
L 232.579505 168.627241 
L 232.833458 178.796462 
L 233.087412 174.556159 
L 233.341366 181.035808 
L 233.849274 170.801979 
L 234.103227 177.235242 
L 234.357181 180.063853 
L 234.611135 173.61949 
L 234.865089 176.554662 
L 235.119043 174.101422 
L 235.372996 180.110517 
L 235.62695 175.216196 
L 235.880904 174.900187 
L 236.134858 179.489087 
L 236.388812 175.016772 
L 236.642765 173.531303 
L 236.896719 177.647936 
L 237.150673 177.688534 
L 237.658581 175.327248 
L 237.912534 171.432489 
L 238.166488 178.911534 
L 238.420442 180.908949 
L 238.674396 175.821648 
L 238.92835 176.6548 
L 239.182304 181.373219 
L 239.436257 172.642623 
L 239.690211 172.245451 
L 239.944165 177.018408 
L 240.198119 177.304785 
L 240.452073 181.427823 
L 240.706026 175.020956 
L 241.467888 179.355295 
L 241.721842 169.606611 
L 242.229749 182.224736 
L 242.483703 179.882673 
L 242.737657 172.57661 
L 242.991611 179.250096 
L 243.245564 182.073299 
L 243.499518 175.528677 
L 243.753472 175.119887 
L 244.007426 176.893009 
L 244.26138 177.354332 
L 244.515333 181.246508 
L 244.769287 175.608366 
L 245.023241 178.750085 
L 245.277195 178.010094 
L 245.531149 178.639558 
L 245.785102 177.340671 
L 246.039056 173.703186 
L 246.29301 176.292566 
L 246.546964 184.883499 
L 246.800918 178.196323 
L 247.054872 179.66208 
L 247.308825 179.009859 
L 247.562779 175.050204 
L 247.816733 173.250798 
L 248.324641 181.935164 
L 248.578594 178.952243 
L 248.832548 178.159981 
L 249.086502 175.493575 
L 249.340456 175.054181 
L 249.59441 185.398125 
L 249.848363 182.854335 
L 250.102317 178.678709 
L 250.356271 177.631244 
L 250.610225 174.522178 
L 250.864179 177.316621 
L 251.118132 176.173279 
L 251.372086 182.053164 
L 251.62604 179.168385 
L 251.879994 180.643783 
L 252.133948 178.014985 
L 252.387901 178.414339 
L 252.641855 178.127137 
L 252.895809 181.589578 
L 253.149763 180.960991 
L 253.403717 177.29139 
L 253.65767 175.705336 
L 253.65767 175.705336 
" clip-path="url(#p92f212e36e)" style="fill: none; stroke: #0000ff; stroke-linecap: square"/>
   </g>
   <g id="patch_3">
    <path d="M 40.603125 185.398125 
L 40.603125 22.318125 
" style="fill: none; stroke: #000000; stroke-width: 0.8; stroke-linejoin: miter; stroke-linecap: square"/>
   </g>
   <g id="patch_4">
    <path d="M 263.803125 185.398125 
L 263.803125 22.318125 
" style="fill: none; stroke: #000000; stroke-width: 0.8; stroke-linejoin: miter; stroke-linecap: square"/>
   </g>
   <g id="patch_5">
    <path d="M 40.603125 185.398125 
L 263.803125 185.398125 
" style="fill: none; stroke: #000000; stroke-width: 0.8; stroke-linejoin: miter; stroke-linecap: square"/>
   </g>
   <g id="patch_6">
    <path d="M 40.603125 22.318125 
L 263.803125 22.318125 
" style="fill: none; stroke: #000000; stroke-width: 0.8; stroke-linejoin: miter; stroke-linecap: square"/>
   </g>
   <g id="text_13">
    <!-- loss_curve -->
    <g transform="translate(120.8025 16.318125)scale(0.12 -0.12)">
     <defs>
      <path id="DejaVuSans-5f" d="M 3263 -1063 
L 3263 -1509 
L -63 -1509 
L -63 -1063 
L 3263 -1063 
z
" transform="scale(0.015625)"/>
      <path id="DejaVuSans-75" d="M 544 1381 
L 544 3500 
L 1119 3500 
L 1119 1403 
Q 1119 906 1312 657 
Q 1506 409 1894 409 
Q 2359 409 2629 706 
Q 2900 1003 2900 1516 
L 2900 3500 
L 3475 3500 
L 3475 0 
L 2900 0 
L 2900 538 
Q 2691 219 2414 64 
Q 2138 -91 1772 -91 
Q 1169 -91 856 284 
Q 544 659 544 1381 
z
M 1991 3584 
L 1991 3584 
z
" transform="scale(0.015625)"/>
      <path id="DejaVuSans-72" d="M 2631 2963 
Q 2534 3019 2420 3045 
Q 2306 3072 2169 3072 
Q 1681 3072 1420 2755 
Q 1159 2438 1159 1844 
L 1159 0 
L 581 0 
L 581 3500 
L 1159 3500 
L 1159 2956 
Q 1341 3275 1631 3429 
Q 1922 3584 2338 3584 
Q 2397 3584 2469 3576 
Q 2541 3569 2628 3553 
L 2631 2963 
z
" transform="scale(0.015625)"/>
      <path id="DejaVuSans-76" d="M 191 3500 
L 800 3500 
L 1894 563 
L 2988 3500 
L 3597 3500 
L 2284 0 
L 1503 0 
L 191 3500 
z
" transform="scale(0.015625)"/>
      <path id="DejaVuSans-65" d="M 3597 1894 
L 3597 1613 
L 953 1613 
Q 991 1019 1311 708 
Q 1631 397 2203 397 
Q 2534 397 2845 478 
Q 3156 559 3463 722 
L 3463 178 
Q 3153 47 2828 -22 
Q 2503 -91 2169 -91 
Q 1331 -91 842 396 
Q 353 884 353 1716 
Q 353 2575 817 3079 
Q 1281 3584 2069 3584 
Q 2775 3584 3186 3129 
Q 3597 2675 3597 1894 
z
M 3022 2063 
Q 3016 2534 2758 2815 
Q 2500 3097 2075 3097 
Q 1594 3097 1305 2825 
Q 1016 2553 972 2059 
L 3022 2063 
z
" transform="scale(0.015625)"/>
     </defs>
     <use xlink:href="#DejaVuSans-6c"/>
     <use xlink:href="#DejaVuSans-6f" x="27.783203"/>
     <use xlink:href="#DejaVuSans-73" x="88.964844"/>
     <use xlink:href="#DejaVuSans-73" x="141.064453"/>
     <use xlink:href="#DejaVuSans-5f" x="193.164062"/>
     <use xlink:href="#DejaVuSans-63" x="243.164062"/>
     <use xlink:href="#DejaVuSans-75" x="298.144531"/>
     <use xlink:href="#DejaVuSans-72" x="361.523438"/>
     <use xlink:href="#DejaVuSans-76" x="402.636719"/>
     <use xlink:href="#DejaVuSans-65" x="461.816406"/>
    </g>
   </g>
   <g id="legend_1">
    <g id="patch_7">
     <path d="M 176.5 45.274375 
L 256.803125 45.274375 
Q 258.803125 45.274375 258.803125 43.274375 
L 258.803125 29.318125 
Q 258.803125 27.318125 256.803125 27.318125 
L 176.5 27.318125 
Q 174.5 27.318125 174.5 29.318125 
L 174.5 43.274375 
Q 174.5 45.274375 176.5 45.274375 
z
" style="fill: #ffffff; opacity: 0.8; stroke: #cccccc; stroke-linejoin: miter"/>
    </g>
    <g id="line2d_12">
     <path d="M 178.5 35.416562 
L 188.5 35.416562 
L 198.5 35.416562 
" style="fill: none; stroke: #0000ff; stroke-linecap: square"/>
    </g>
    <g id="text_14">
     <!-- Train_loss -->
     <g transform="translate(206.5 38.916562)scale(0.1 -0.1)">
      <defs>
       <path id="DejaVuSans-54" d="M -19 4666 
L 3928 4666 
L 3928 4134 
L 2272 4134 
L 2272 0 
L 1638 0 
L 1638 4134 
L -19 4134 
L -19 4666 
z
" transform="scale(0.015625)"/>
       <path id="DejaVuSans-61" d="M 2194 1759 
Q 1497 1759 1228 1600 
Q 959 1441 959 1056 
Q 959 750 1161 570 
Q 1363 391 1709 391 
Q 2188 391 2477 730 
Q 2766 1069 2766 1631 
L 2766 1759 
L 2194 1759 
z
M 3341 1997 
L 3341 0 
L 2766 0 
L 2766 531 
Q 2569 213 2275 61 
Q 1981 -91 1556 -91 
Q 1019 -91 701 211 
Q 384 513 384 1019 
Q 384 1609 779 1909 
Q 1175 2209 1959 2209 
L 2766 2209 
L 2766 2266 
Q 2766 2663 2505 2880 
Q 2244 3097 1772 3097 
Q 1472 3097 1187 3025 
Q 903 2953 641 2809 
L 641 3341 
Q 956 3463 1253 3523 
Q 1550 3584 1831 3584 
Q 2591 3584 2966 3190 
Q 3341 2797 3341 1997 
z
" transform="scale(0.015625)"/>
       <path id="DejaVuSans-69" d="M 603 3500 
L 1178 3500 
L 1178 0 
L 603 0 
L 603 3500 
z
M 603 4863 
L 1178 4863 
L 1178 4134 
L 603 4134 
L 603 4863 
z
" transform="scale(0.015625)"/>
       <path id="DejaVuSans-6e" d="M 3513 2113 
L 3513 0 
L 2938 0 
L 2938 2094 
Q 2938 2591 2744 2837 
Q 2550 3084 2163 3084 
Q 1697 3084 1428 2787 
Q 1159 2491 1159 1978 
L 1159 0 
L 581 0 
L 581 3500 
L 1159 3500 
L 1159 2956 
Q 1366 3272 1645 3428 
Q 1925 3584 2291 3584 
Q 2894 3584 3203 3211 
Q 3513 2838 3513 2113 
z
" transform="scale(0.015625)"/>
      </defs>
      <use xlink:href="#DejaVuSans-54"/>
      <use xlink:href="#DejaVuSans-72" x="46.333984"/>
      <use xlink:href="#DejaVuSans-61" x="87.447266"/>
      <use xlink:href="#DejaVuSans-69" x="148.726562"/>
      <use xlink:href="#DejaVuSans-6e" x="176.509766"/>
      <use xlink:href="#DejaVuSans-5f" x="239.888672"/>
      <use xlink:href="#DejaVuSans-6c" x="289.888672"/>
      <use xlink:href="#DejaVuSans-6f" x="317.671875"/>
      <use xlink:href="#DejaVuSans-73" x="378.853516"/>
      <use xlink:href="#DejaVuSans-73" x="430.953125"/>
     </g>
    </g>
   </g>
  </g>
 </g>
 <defs>
  <clipPath id="p92f212e36e">
   <rect x="40.603125" y="22.318125" width="223.2" height="163.08"/>
  </clipPath>
 </defs>
</svg>
